# xmcd CD database file
#
# Track frame offsets:
#	150
#	37571
#	70417
#	111588
#	142222
#	175181
#	209790
#	232662
#	264608
#
# Disc length: 3871 seconds
#
# Revision: 0
# Processed by: cddbd v1.5.1PL0 Copyright (c) Steve Scherf et al.
# Submitted via: CDex 1.51
#
DISCID=850f1d09
DTITLE=Daryl Lowery - Instant Groove
DYEAR=1900
DGENRE=Jazz
TTITLE0=The Yodel
TTITLE1=Bust a groove
TTITLE2=Like Cissy
TTITLE3=We can move the world
TTITLE4=Hot shot
TTITLE5=The luul moon on the 14th night
TTITLE6=Home cooking
TTITLE7=Hot dog
TTITLE8=I'll Drown in my own tears
EXTD=
EXTT0=
EXTT1=
EXTT2=
EXTT3=
EXTT4=
EXTT5=
EXTT6=
EXTT7=
EXTT8=
PLAYORDER=
